<svg width="1440" height="847" viewBox="0 0 1440 847" fill="none" xmlns="http://www.w3.org/2000/svg">
<g clip-path="url(#clip0_1479_29880)">
<path opacity="0.25" fill-rule="evenodd" clip-rule="evenodd" d="M156.184 382.051C126.381 412.211 82.8426 422.061 39.9979 394.975C-9.30558 363.807 -51.4149 309.015 -51.3271 250.868C-51.2267 184.384 -16.612 130.147 40.4033 126.5C100.125 122.679 167.139 166.41 198.172 234.905C225.254 294.681 192.029 345.776 156.184 382.051Z" fill="#8EC2F2"/>
<path opacity="0.35" fill-rule="evenodd" clip-rule="evenodd" d="M1210.71 352.094C1255.95 442.192 1264.49 556.158 1172.71 631.188C1078.26 708.408 940.37 705.174 837.539 657.165C741.26 612.214 693.429 518.847 721.561 420.556C750.453 319.612 845.28 232.073 963.963 215.462C1078.51 199.43 1167.5 266.039 1210.71 352.094Z" fill="#8EC2F2"/>
<path opacity="0.4" fill-rule="evenodd" clip-rule="evenodd" d="M1039.51 223.182C1142.64 244.579 1244.32 308.205 1253.67 423.237C1263.3 541.624 1179.04 643.18 1077.54 690.895C982.508 735.57 875.07 714.109 808.367 632.577C739.864 548.845 721.708 423.838 777.789 324.506C831.917 228.636 941.001 202.745 1039.51 223.182Z" fill="#23A6F0"/>
</g>
<defs>
<clipPath id="clip0_1479_29880">
<rect width="1440" height="847" fill="white"/>
</clipPath>
</defs>
</svg>
